<svg xmlns="http://www.w3.org/2000/svg" xmlns:xlink="http://www.w3.org/1999/xlink" version="1.1" width="256" height="256" viewBox="0 0 256 256" xml:space="preserve">

<defs>
</defs>
<g style="stroke: none; stroke-width: 0; stroke-dasharray: none; stroke-linecap: butt; stroke-linejoin: miter; stroke-miterlimit: 10; fill: none; fill-rule: nonzero; opacity: 1;" transform="translate(1.4065934065934016 1.4065934065934016) scale(2.81 2.81)" >
	<rect x="42.7" y="22.73" rx="0" ry="0" width="4.6" height="38.54" style="stroke: none; stroke-width: 1; stroke-dasharray: none; stroke-linecap: butt; stroke-linejoin: miter; stroke-miterlimit: 10; fill: rgb(90,81,107); fill-rule: nonzero; opacity: 1;" transform=" matrix(1 0 0 1 0 0) "/>
	<path d="M 57.933 70.793 c -8.622 2.607 -17.244 2.607 -25.866 0 v 0 c 0 -5.987 4.854 -10.841 10.841 -10.841 h 4.184 C 53.079 59.953 57.933 64.806 57.933 70.793 L 57.933 70.793 z" style="stroke: none; stroke-width: 1; stroke-dasharray: none; stroke-linecap: butt; stroke-linejoin: miter; stroke-miterlimit: 10; fill: rgb(150,148,162); fill-rule: nonzero; opacity: 1;" transform=" matrix(1 0 0 1 0 0) " stroke-linecap="round" />
	<path d="M 75.188 20.559 L 75.188 20.559 l -24.49 -0.026 c -0.553 0 -1 -0.449 -0.999 -1.001 s 0.448 -0.999 1 -0.999 H 50.7 l 24.489 0.026 c 0.553 0 1 0.449 0.999 1.001 S 75.74 20.559 75.188 20.559 z" style="stroke: none; stroke-width: 1; stroke-dasharray: none; stroke-linecap: butt; stroke-linejoin: miter; stroke-miterlimit: 10; fill: rgb(107,126,129); fill-rule: nonzero; opacity: 1;" transform=" matrix(1 0 0 1 0 0) " stroke-linecap="round" />
	<path d="M 14.812 20.559 c -0.552 0 -1 -0.447 -1 -0.999 s 0.447 -1 0.999 -1.001 l 24.49 -0.026 c 0 0 0 0 0.001 0 c 0.552 0 1 0.447 1 0.999 s -0.447 1 -0.999 1.001 L 14.812 20.559 C 14.813 20.559 14.812 20.559 14.812 20.559 z" style="stroke: none; stroke-width: 1; stroke-dasharray: none; stroke-linecap: butt; stroke-linejoin: miter; stroke-miterlimit: 10; fill: rgb(107,126,129); fill-rule: nonzero; opacity: 1;" transform=" matrix(1 0 0 1 0 0) " stroke-linecap="round" />
	<path d="M 21.844 49.952 c -0.424 0 -0.817 -0.271 -0.953 -0.697 l -8.608 -27.071 c -0.167 -0.526 0.124 -1.089 0.65 -1.256 c 0.527 -0.167 1.088 0.124 1.256 0.65 l 8.608 27.072 c 0.167 0.526 -0.124 1.088 -0.65 1.256 C 22.047 49.938 21.945 49.952 21.844 49.952 z" style="stroke: none; stroke-width: 1; stroke-dasharray: none; stroke-linecap: butt; stroke-linejoin: miter; stroke-miterlimit: 10; fill: rgb(90,81,107); fill-rule: nonzero; opacity: 1;" transform=" matrix(1 0 0 1 0 0) " stroke-linecap="round" />
	<path d="M 3.134 49.952 c -0.101 0 -0.203 -0.015 -0.304 -0.047 c -0.526 -0.168 -0.817 -0.729 -0.65 -1.256 l 8.645 -27.184 c 0.167 -0.526 0.729 -0.816 1.256 -0.65 c 0.526 0.167 0.817 0.73 0.65 1.256 L 4.087 49.255 C 3.952 49.681 3.558 49.952 3.134 49.952 z" style="stroke: none; stroke-width: 1; stroke-dasharray: none; stroke-linecap: butt; stroke-linejoin: miter; stroke-miterlimit: 10; fill: rgb(90,81,107); fill-rule: nonzero; opacity: 1;" transform=" matrix(1 0 0 1 0 0) " stroke-linecap="round" />
	<path d="M 21.168 56.003 H 3.811 C 1.706 56.003 0 54.297 0 52.192 v -3.241 h 24.979 v 3.241 C 24.979 54.297 23.273 56.003 21.168 56.003 z" style="stroke: none; stroke-width: 1; stroke-dasharray: none; stroke-linecap: butt; stroke-linejoin: miter; stroke-miterlimit: 10; fill: rgb(150,148,162); fill-rule: nonzero; opacity: 1;" transform=" matrix(1 0 0 1 0 0) " stroke-linecap="round" />
	<path d="M 86.866 49.952 c -0.424 0 -0.817 -0.271 -0.953 -0.697 l -8.645 -27.183 c -0.167 -0.526 0.124 -1.089 0.65 -1.256 c 0.522 -0.167 1.088 0.124 1.256 0.65 l 8.645 27.184 c 0.167 0.526 -0.124 1.088 -0.65 1.256 C 87.068 49.938 86.967 49.952 86.866 49.952 z" style="stroke: none; stroke-width: 1; stroke-dasharray: none; stroke-linecap: butt; stroke-linejoin: miter; stroke-miterlimit: 10; fill: rgb(90,81,107); fill-rule: nonzero; opacity: 1;" transform=" matrix(1 0 0 1 0 0) " stroke-linecap="round" />
	<path d="M 68.155 49.952 c -0.101 0 -0.202 -0.015 -0.303 -0.047 c -0.526 -0.168 -0.817 -0.729 -0.65 -1.256 l 8.608 -27.072 c 0.168 -0.526 0.73 -0.816 1.256 -0.65 c 0.526 0.167 0.817 0.73 0.65 1.256 l -8.608 27.071 C 68.973 49.681 68.579 49.952 68.155 49.952 z" style="stroke: none; stroke-width: 1; stroke-dasharray: none; stroke-linecap: butt; stroke-linejoin: miter; stroke-miterlimit: 10; fill: rgb(90,81,107); fill-rule: nonzero; opacity: 1;" transform=" matrix(1 0 0 1 0 0) " stroke-linecap="round" />
	<path d="M 86.189 56.003 H 68.832 c -2.105 0 -3.811 -1.706 -3.811 -3.811 v -3.241 H 90 v 3.241 C 90 54.297 88.294 56.003 86.189 56.003 z" style="stroke: none; stroke-width: 1; stroke-dasharray: none; stroke-linecap: butt; stroke-linejoin: miter; stroke-miterlimit: 10; fill: rgb(150,148,162); fill-rule: nonzero; opacity: 1;" transform=" matrix(1 0 0 1 0 0) " stroke-linecap="round" />
	<path d="M 45 13.86 c -3.147 0 -5.699 2.551 -5.699 5.699 c 0 3.147 2.552 5.699 5.699 5.699 s 5.699 -2.551 5.699 -5.699 C 50.699 16.411 48.147 13.86 45 13.86 z M 45 21.604 c -1.13 0 -2.045 -0.916 -2.045 -2.045 c 0 -1.13 0.916 -2.045 2.045 -2.045 s 2.045 0.916 2.045 2.045 C 47.045 20.688 46.13 21.604 45 21.604 z" style="stroke: none; stroke-width: 1; stroke-dasharray: none; stroke-linecap: butt; stroke-linejoin: miter; stroke-miterlimit: 10; fill: rgb(150,148,162); fill-rule: nonzero; opacity: 1;" transform=" matrix(1 0 0 1 0 0) " stroke-linecap="round" />
	<circle cx="77.512" cy="19.561999999999998" r="2.322" style="stroke: none; stroke-width: 1; stroke-dasharray: none; stroke-linecap: butt; stroke-linejoin: miter; stroke-miterlimit: 10; fill: rgb(150,148,162); fill-rule: nonzero; opacity: 1;" transform="  matrix(1 0 0 1 0 0) "/>
	<circle cx="12.492" cy="19.561999999999998" r="2.322" style="stroke: none; stroke-width: 1; stroke-dasharray: none; stroke-linecap: butt; stroke-linejoin: miter; stroke-miterlimit: 10; fill: rgb(150,148,162); fill-rule: nonzero; opacity: 1;" transform="  matrix(1 0 0 1 0 0) "/>
	<path d="M 60.881 76.14 H 29.119 c -0.525 0 -0.951 -0.426 -0.951 -0.951 v -3.445 c 0 -0.525 0.426 -0.951 0.951 -0.951 h 31.762 c 0.525 0 0.951 0.426 0.951 0.951 v 3.445 C 61.832 75.714 61.406 76.14 60.881 76.14 z" style="stroke: none; stroke-width: 1; stroke-dasharray: none; stroke-linecap: butt; stroke-linejoin: miter; stroke-miterlimit: 10; fill: rgb(90,81,107); fill-rule: nonzero; opacity: 1;" transform=" matrix(1 0 0 1 0 0) " stroke-linecap="round" />
</g>
</svg>